<?xml version="1.0" encoding="utf-8"?>
<!-- Generator: Adobe Illustrator 15.0.0, SVG Export Plug-In . SVG Version: 6.00 Build 0)  -->
<!DOCTYPE svg PUBLIC "-//W3C//DTD SVG 1.1//EN" "http://www.w3.org/Graphics/SVG/1.1/DTD/svg11.dtd">
<svg version="1.1" id="Layer_1" xmlns="http://www.w3.org/2000/svg" xmlns:xlink="http://www.w3.org/1999/xlink" x="0px" y="0px"
	 width="744px" height="1052px" viewBox="0 0 744 1052" enable-background="new 0 0 744 1052" xml:space="preserve">
<radialGradient id="SVGID_1_" cx="372" cy="526" r="337.666" gradientUnits="userSpaceOnUse">
	<stop  offset="0" style="stop-color:#00B3E7"/>
	<stop  offset="1" style="stop-color:#0050AA"/>
</radialGradient>
<path fill="url(#SVGID_1_)" stroke="#FFFFFF" stroke-miterlimit="10" d="M709.666,525.998c0,186.486-151.18,337.668-337.67,337.668
	c-186.485,0-337.662-151.182-337.662-337.668c0-186.487,151.177-337.664,337.662-337.664
	C558.486,188.334,709.666,339.511,709.666,525.998z"/>
<path fill="#FFFFFF" d="M693.523,527.795c0,178.561-144.758,323.318-323.321,323.318c-178.559,0-323.313-144.758-323.313-323.318
	c0-178.566,144.754-323.317,323.313-323.317C548.766,204.478,693.523,349.229,693.523,527.795z"/>
<radialGradient id="SVGID_2_" cx="372.0015" cy="524.2075" r="247.9834" gradientUnits="userSpaceOnUse">
	<stop  offset="0" style="stop-color:#00B3E7"/>
	<stop  offset="1" style="stop-color:#0050AA"/>
</radialGradient>
<path fill="url(#SVGID_2_)" d="M619.984,524.208c0,136.949-111.027,247.983-247.988,247.983
	c-136.953,0-247.978-111.034-247.978-247.983c0-136.961,111.024-247.984,247.978-247.984
	C508.957,276.224,619.984,387.247,619.984,524.208z"/>
<g>
	<path fill="none" d="M393.354,253.543c150.961,10.305,264.998,141.046,254.691,292.014
		C637.74,696.526,506.99,810.555,356.026,800.247C205.061,789.948,91.028,659.209,101.334,508.238
		C111.641,357.269,242.379,243.236,393.354,253.543z"/>
	<path fill="#0050AA" d="M104.666,477.848l-0.828,6.717l-7.277,1.813l-1.508,12.226l6.635,3.382l-0.808,6.55l-29.113-15.685
		l0.805-6.53L104.666,477.848z M91.163,487.725l-11.869,2.814l10.839,5.529L91.163,487.725z"/>
	<path fill="#0050AA" d="M95.195,474.663l0.799-6.029c2.061,0.105,3.684-0.276,4.863-1.146c1.181-0.869,1.985-2.225,2.415-4.068
		c0.454-1.951,0.384-3.518-0.212-4.7c-0.595-1.182-1.446-1.901-2.552-2.158c-0.71-0.166-1.362-0.098-1.958,0.202
		c-0.594,0.301-1.197,0.927-1.808,1.878c-0.411,0.653-1.224,2.169-2.439,4.548c-1.561,3.061-3.081,5.11-4.559,6.147
		c-2.08,1.458-4.308,1.91-6.683,1.357c-1.529-0.355-2.857-1.121-3.986-2.298c-1.129-1.176-1.852-2.661-2.169-4.454
		c-0.316-1.792-0.206-3.842,0.332-6.149c0.876-3.767,2.362-6.411,4.456-7.93c2.096-1.52,4.532-2.006,7.311-1.461l-1.144,6.123
		c-1.602-0.1-2.841,0.199-3.715,0.894c-0.875,0.696-1.51,1.897-1.907,3.603c-0.41,1.761-0.369,3.224,0.123,4.389
		c0.315,0.75,0.86,1.214,1.639,1.396c0.709,0.165,1.387,0.006,2.032-0.477c0.819-0.615,1.92-2.316,3.303-5.102
		s2.608-4.799,3.681-6.038c1.074-1.24,2.348-2.109,3.822-2.607c1.477-0.498,3.163-0.526,5.06-0.085
		c1.72,0.4,3.219,1.253,4.499,2.558c1.28,1.305,2.081,2.915,2.404,4.832c0.324,1.917,0.182,4.179-0.424,6.786
		c-0.884,3.795-2.439,6.505-4.666,8.13C101.484,474.43,98.645,475.049,95.195,474.663z"/>
	<path fill="#0050AA" d="M101.941,446.446l1.413-5.917c2.041,0.316,3.692,0.103,4.955-0.64c1.264-0.744,2.204-2.01,2.818-3.799
		c0.651-1.896,0.742-3.461,0.271-4.697c-0.471-1.237-1.243-2.04-2.317-2.409c-0.689-0.237-1.345-0.237-1.968,0.001
		c-0.622,0.238-1.286,0.799-1.99,1.683c-0.475,0.607-1.439,2.032-2.893,4.273c-1.866,2.885-3.588,4.767-5.166,5.648
		c-2.218,1.237-4.48,1.459-6.787,0.666c-1.484-0.51-2.728-1.408-3.73-2.694c-1.003-1.286-1.569-2.837-1.701-4.653
		c-0.13-1.816,0.189-3.843,0.958-6.083c1.258-3.657,3.007-6.134,5.246-7.431c2.24-1.298,4.714-1.532,7.422-0.704l-1.765,5.972
		c-1.585-0.263-2.848-0.093-3.788,0.51c-0.941,0.603-1.697,1.732-2.266,3.388c-0.588,1.709-0.698,3.169-0.328,4.377
		c0.237,0.778,0.732,1.296,1.489,1.557c0.688,0.237,1.378,0.148,2.07-0.267c0.878-0.527,2.146-2.106,3.806-4.736
		c1.661-2.63,3.088-4.506,4.281-5.629c1.195-1.123,2.551-1.857,4.07-2.201c1.519-0.345,3.2-0.2,5.042,0.433
		c1.669,0.574,3.073,1.576,4.212,3.005c1.14,1.429,1.771,3.114,1.896,5.054c0.126,1.94-0.247,4.175-1.116,6.707
		c-1.268,3.684-3.092,6.22-5.475,7.609C108.221,446.857,105.333,447.183,101.941,446.446z"/>
	<path fill="#0050AA" d="M106.881,416.504c-2.837-1.344-5.017-2.897-6.539-4.657c-1.119-1.305-1.982-2.773-2.589-4.403
		c-0.608-1.629-0.875-3.225-0.801-4.788c0.088-2.083,0.668-4.257,1.743-6.524c1.944-4.103,4.772-6.782,8.486-8.039
		c3.712-1.257,7.834-0.811,12.368,1.338c4.496,2.131,7.435,5.02,8.814,8.666c1.38,3.648,1.102,7.517-0.837,11.606
		c-1.963,4.142-4.786,6.835-8.471,8.082C115.371,419.032,111.313,418.605,106.881,416.504z M109.438,410.622
		c3.152,1.495,5.889,1.899,8.205,1.214c2.318-0.685,4.007-2.148,5.07-4.39c1.063-2.242,1.127-4.463,0.193-6.666
		c-0.933-2.202-3.014-4.069-6.244-5.599c-3.19-1.512-5.902-1.941-8.136-1.286c-2.233,0.655-3.9,2.141-4.998,4.458
		s-1.188,4.562-0.272,6.733C104.173,407.258,106.234,409.103,109.438,410.622z"/>
	<path fill="#0050AA" d="M136.332,369.817l4.816-4.105c2.364,2.565,3.668,5.193,3.914,7.881c0.246,2.689-0.505,5.437-2.257,8.242
		c-2.166,3.471-5.132,5.585-8.9,6.34c-3.766,0.755-7.705-0.151-11.819-2.719c-4.35-2.715-7.029-5.948-8.034-9.696
		c-1.006-3.75-0.365-7.455,1.92-11.117c1.996-3.198,4.561-5.206,7.699-6.023c1.858-0.491,4.02-0.381,6.483,0.33l-2.012,6.004
		c-1.548-0.537-3.021-0.56-4.418-0.069c-1.396,0.491-2.533,1.438-3.407,2.841c-1.209,1.938-1.496,3.945-0.857,6.019
		c0.637,2.074,2.514,4.084,5.629,6.027c3.305,2.063,6.029,2.938,8.174,2.624c2.145-0.313,3.811-1.421,4.998-3.323
		c0.875-1.402,1.182-2.888,0.921-4.455C138.921,373.053,137.972,371.452,136.332,369.817z"/>
	<path fill="#0050AA" d="M152.043,367.119l-24.818-18.267l3.689-5.011l24.817,18.266L152.043,367.119z"/>
	<path fill="#0050AA" d="M176.939,336.624l-4.417,5.129l-7.059-2.528l-8.038,9.334l3.645,6.494l-4.306,5.002l-15.521-29.201
		l4.293-4.986L176.939,336.624z M160.224,337.35l-11.436-4.244l5.95,10.615L160.224,337.35z"/>
	<path fill="#0050AA" d="M185.501,313.196l5.718-2.713c1.616,3.091,2.193,5.967,1.733,8.628c-0.462,2.661-1.903,5.118-4.322,7.373
		c-2.994,2.79-6.408,4.059-10.241,3.809c-3.834-0.25-7.403-2.148-10.708-5.696c-3.496-3.752-5.243-7.57-5.239-11.451
		c0.004-3.882,1.584-7.293,4.742-10.235c2.759-2.57,5.759-3.842,9-3.816c1.922,0.009,3.981,0.676,6.176,2.003l-3.504,5.275
		c-1.356-0.92-2.771-1.325-4.249-1.214c-1.475,0.111-2.819,0.731-4.029,1.858c-1.672,1.557-2.468,3.42-2.392,5.589
		c0.077,2.169,1.367,4.597,3.87,7.283c2.655,2.851,5.059,4.403,7.212,4.658c2.153,0.254,4.05-0.382,5.689-1.911
		c1.209-1.127,1.892-2.481,2.048-4.062C187.162,316.993,186.66,315.201,185.501,313.196z M189.433,336.596l-1.691-1.815
		c1.162-0.871,2.183-1.717,3.066-2.539c0.912-0.85,1.435-1.645,1.57-2.383c0.109-0.561-0.019-1.037-0.38-1.427
		c-0.325-0.349-0.766-0.503-1.322-0.463c-0.557,0.04-1.168,0.371-1.834,0.991c-0.657,0.611-1.233,1.339-1.729,2.185l-1.019-1.895
		c0.542-1.022,1.274-1.962,2.197-2.822c1.282-1.194,2.518-1.82,3.71-1.876c1.192-0.057,2.165,0.319,2.92,1.129
		c0.841,0.902,1.154,1.979,0.941,3.231c-0.278,1.695-1.344,3.408-3.201,5.137C191.338,335.28,190.262,336.129,189.433,336.596z"/>
	<path fill="#0050AA" d="M187.553,284.09l-2.157,1.606c-0.204-0.25-0.36-0.448-0.469-0.594c-0.88-1.18-1.27-2.301-1.169-3.363
		c0.101-1.062,0.601-1.928,1.499-2.598c0.394-0.293,0.79-0.523,1.191-0.69c0.4-0.167,1.195-0.383,2.385-0.65
		c1.191-0.267,2.039-0.588,2.544-0.965c0.359-0.268,0.577-0.604,0.65-1.009c0.075-0.405-0.052-0.896-0.377-1.475l2.191-1.632
		c1.118,1.525,1.643,2.821,1.572,3.887c-0.071,1.067-0.544,1.926-1.421,2.579c-0.383,0.285-0.789,0.526-1.218,0.724
		c-0.309,0.125-1.125,0.376-2.453,0.753c-1.327,0.377-2.227,0.741-2.698,1.093c-0.359,0.268-0.559,0.587-0.597,0.957
		C186.988,283.083,187.163,283.542,187.553,284.09z M223.433,297.911l-5.428,4.043l-6.339-4.006l-9.877,7.359l2.141,7.132
		l-5.292,3.943l-8.784-31.883l5.276-3.93L223.433,297.911z M206.962,294.977l-10.235-6.633L200.219,300L206.962,294.977z"/>
	<path fill="#0050AA" d="M216.85,284.084c-1.576-2.715-2.493-5.229-2.75-7.542c-0.182-1.708-0.062-3.407,0.36-5.095
		c0.423-1.687,1.106-3.153,2.053-4.399c1.251-1.667,2.963-3.129,5.132-4.389c3.927-2.279,7.776-2.884,11.547-1.816
		s6.917,3.771,9.434,8.11c2.498,4.303,3.282,8.348,2.353,12.135c-0.929,3.788-3.351,6.818-7.266,9.09
		c-3.962,2.3-7.815,2.92-11.558,1.86C222.413,290.978,219.311,288.327,216.85,284.084z M222.289,280.685
		c1.752,3.018,3.775,4.901,6.074,5.649c2.297,0.749,4.52,0.5,6.664-0.745c2.146-1.246,3.457-3.04,3.937-5.383
		c0.478-2.344-0.179-5.061-1.973-8.151c-1.773-3.054-3.766-4.944-5.977-5.669c-2.212-0.726-4.427-0.445-6.645,0.843
		c-2.218,1.287-3.564,3.085-4.039,5.395C219.856,274.931,220.509,277.618,222.289,280.685z"/>
	<path fill="#0050AA" d="M253.445,246.904l10.609-4.096c2.392-0.924,4.286-1.445,5.682-1.564c1.879-0.154,3.664,0.171,5.356,0.975
		c1.692,0.803,3.207,2.003,4.543,3.597c1.336,1.595,2.525,3.738,3.565,6.432c0.914,2.366,1.407,4.52,1.48,6.458
		c0.088,2.37-0.284,4.459-1.118,6.268c-0.627,1.37-1.692,2.659-3.193,3.869c-1.124,0.9-2.758,1.764-4.902,2.592l-10.922,4.218
		L253.445,246.904z M261.127,249.526l7.353,19.04l4.334-1.673c1.621-0.626,2.754-1.169,3.403-1.63
		c0.851-0.599,1.477-1.299,1.882-2.101c0.404-0.801,0.553-1.922,0.448-3.361c-0.105-1.438-0.586-3.27-1.445-5.492
		c-0.858-2.223-1.713-3.853-2.564-4.892c-0.852-1.038-1.758-1.754-2.722-2.148c-0.964-0.395-2.033-0.5-3.208-0.315
		c-0.882,0.129-2.505,0.651-4.872,1.564L261.127,249.526z"/>
	<path fill="#0050AA" d="M292.965,265.059l-7.966-29.767l22.071-5.908l1.348,5.036l-16.061,4.299l1.766,6.6l14.946-4l1.342,5.016
		l-14.946,4l2.168,8.102l16.63-4.451l1.342,5.016L292.965,265.059z"/>
	<path fill="#0050AA" d="M316.915,248.451l5.884-1.538c0.681,1.949,1.647,3.306,2.898,4.07c1.25,0.765,2.811,0.998,4.677,0.699
		c1.979-0.316,3.403-0.974,4.273-1.972c0.869-0.998,1.214-2.057,1.034-3.177c-0.115-0.72-0.425-1.298-0.927-1.736
		c-0.503-0.438-1.31-0.759-2.421-0.964c-0.759-0.134-2.47-0.314-5.132-0.541c-3.423-0.289-5.895-0.922-7.414-1.9
		c-2.135-1.375-3.396-3.268-3.782-5.674c-0.248-1.55-0.041-3.07,0.622-4.56c0.663-1.49,1.766-2.72,3.305-3.69
		c1.541-0.97,3.48-1.642,5.819-2.016c3.819-0.612,6.828-0.234,9.026,1.13c2.199,1.365,3.569,3.438,4.113,6.218l-6.1,1.253
		c-0.513-1.521-1.258-2.555-2.232-3.102c-0.975-0.546-2.326-0.681-4.056-0.404c-1.786,0.286-3.125,0.875-4.017,1.771
		c-0.575,0.575-0.799,1.256-0.672,2.045c0.115,0.72,0.518,1.287,1.208,1.701c0.879,0.526,2.87,0.903,5.972,1.13
		c3.102,0.228,5.429,0.604,6.981,1.128c1.554,0.525,2.838,1.376,3.858,2.555c1.019,1.178,1.682,2.729,1.99,4.652
		c0.278,1.743,0.057,3.454-0.669,5.131c-0.725,1.677-1.914,3.027-3.566,4.051c-1.652,1.023-3.8,1.747-6.443,2.17
		c-3.848,0.616-6.944,0.199-9.291-1.249C319.507,254.185,317.86,251.791,316.915,248.451z"/>
	<path fill="#0050AA" d="M347.72,253.964l-1.733-30.767l9.968-0.562c3.779-0.213,6.25-0.198,7.414,0.045
		c1.789,0.363,3.322,1.284,4.599,2.762c1.275,1.479,1.982,3.443,2.121,5.892c0.106,1.889-0.147,3.496-0.76,4.822
		c-0.613,1.326-1.427,2.386-2.442,3.18c-1.015,0.794-2.061,1.341-3.139,1.64c-1.467,0.377-3.606,0.645-6.418,0.803l-4.051,0.229
		l0.653,11.605L347.72,253.964z M352.493,228.052l0.491,8.73l3.399-0.192c2.448-0.138,4.077-0.391,4.885-0.759
		s1.425-0.908,1.856-1.621c0.429-0.711,0.619-1.522,0.568-2.432c-0.064-1.12-0.445-2.024-1.144-2.715
		c-0.698-0.69-1.557-1.098-2.574-1.224c-0.75-0.097-2.244-0.084-4.481,0.042L352.493,228.052z"/>
	<path fill="#0050AA" d="M375.151,237.321c0.163-3.134,0.77-5.74,1.817-7.819c0.78-1.531,1.81-2.888,3.084-4.071
		c1.274-1.182,2.649-2.036,4.122-2.563c1.96-0.712,4.192-1.003,6.697-0.873c4.534,0.236,8.089,1.831,10.664,4.786
		c2.575,2.954,3.733,6.937,3.472,11.946c-0.257,4.968-1.81,8.785-4.656,11.45c-2.847,2.667-6.53,3.881-11.052,3.646
		c-4.576-0.238-8.141-1.823-10.697-4.756C376.047,246.135,374.896,242.219,375.151,237.321z M381.564,237.444
		c-0.182,3.484,0.485,6.168,2.002,8.05c1.516,1.882,3.512,2.888,5.989,3.016c2.478,0.129,4.557-0.658,6.237-2.359
		c1.681-1.702,2.615-4.337,2.8-7.906c0.185-3.526-0.452-6.197-1.908-8.013c-1.457-1.815-3.465-2.791-6.026-2.924
		c-2.562-0.133-4.672,0.638-6.329,2.313C382.67,231.296,381.749,233.904,381.564,237.444z"/>
	<path fill="#0050AA" d="M408.209,254.677l5.108-30.39l12.913,2.17c3.247,0.546,5.563,1.215,6.941,2.009
		c1.38,0.793,2.396,1.962,3.046,3.506c0.649,1.545,0.823,3.215,0.521,5.012c-0.383,2.28-1.37,4.051-2.96,5.311
		c-1.59,1.26-3.752,1.86-6.483,1.798c1.196,0.998,2.148,2.031,2.856,3.102c0.708,1.071,1.597,2.912,2.664,5.521l2.714,6.552
		l-7.339-1.233l-3.324-7.358c-1.177-2.628-2.005-4.298-2.482-5.011c-0.479-0.712-1.021-1.237-1.633-1.575s-1.621-0.624-3.031-0.861
		l-1.243-0.208l-2.132,12.686L408.209,254.677z M417.292,238.171l4.541,0.763c2.941,0.495,4.801,0.679,5.576,0.554
		c0.773-0.125,1.419-0.458,1.937-0.997c0.517-0.538,0.852-1.263,1.006-2.175c0.172-1.023,0.037-1.894-0.403-2.615
		c-0.44-0.721-1.145-1.247-2.111-1.58c-0.485-0.152-1.973-0.438-4.46-0.856l-4.788-0.805L417.292,238.171z"/>
	<path fill="#0050AA" d="M444.733,261.94l6.795-24.684l-8.814-2.427l1.383-5.026l23.61,6.5l-1.383,5.026l-8.797-2.422l-6.796,24.685
		L444.733,261.94z"/>
	<path fill="#0050AA" d="M462.596,267.302l10.19-29.082l5.871,2.058l-10.189,29.082L462.596,267.302z"/>
	<path fill="#0050AA" d="M480.82,274.193l2.179-32.652l6.188,2.689l-1.937,24.026l16.011-17.911l6.053,2.63l-22.402,23.865
		L480.82,274.193z"/>
	<path fill="#0050AA" d="M520.665,294.457l-5.922-3.277l1.034-7.427l-10.778-5.964l-5.614,4.894l-5.774-3.195l25.421-21.152
		l5.757,3.185L520.665,294.457z M516.544,278.243l1.821-12.061l-9.178,7.99L516.544,278.243z"/>
	<path fill="#0050AA" d="M553.644,304.524l3.631,5.184c-2.778,2.109-5.519,3.159-8.218,3.149c-2.702-0.01-5.364-1.02-7.992-3.029
		c-3.25-2.485-5.071-5.639-5.465-9.46c-0.396-3.821,0.881-7.657,3.826-11.509c3.116-4.074,6.588-6.433,10.416-7.079
		c3.827-0.645,7.454,0.344,10.884,2.965c2.993,2.29,4.749,5.036,5.266,8.235c0.313,1.898-0.002,4.039-0.943,6.424l-5.786-2.573
		c0.681-1.49,0.844-2.954,0.487-4.391c-0.356-1.437-1.192-2.658-2.505-3.662c-1.814-1.388-3.785-1.862-5.911-1.424
		s-4.305,2.115-6.534,5.032c-2.367,3.094-3.495,5.724-3.387,7.889c0.108,2.165,1.053,3.928,2.833,5.29
		c1.313,1.005,2.764,1.452,4.348,1.34C550.178,306.794,551.86,306.001,553.644,304.524z"/>
	<path fill="#0050AA" d="M564.649,308.296c2.179-2.259,4.345-3.83,6.5-4.711c1.593-0.644,3.259-0.993,4.997-1.05
		c1.739-0.056,3.336,0.2,4.795,0.769c1.945,0.748,3.82,1.992,5.627,3.733c3.268,3.152,4.905,6.688,4.911,10.607
		c0.007,3.919-1.73,7.685-5.213,11.296c-3.454,3.581-7.129,5.443-11.026,5.588s-7.474-1.354-10.732-4.495
		c-3.298-3.181-4.95-6.717-4.957-10.607C559.545,315.536,561.244,311.827,564.649,308.296z M569.409,312.595
		c-2.422,2.512-3.679,4.976-3.769,7.39s0.759,4.483,2.544,6.205c1.785,1.722,3.871,2.492,6.256,2.309
		c2.385-0.182,4.818-1.559,7.298-4.131c2.451-2.542,3.723-4.976,3.814-7.302c0.092-2.325-0.785-4.378-2.631-6.159
		c-1.847-1.78-3.944-2.582-6.295-2.405C574.276,308.679,571.871,310.043,569.409,312.595z"/>
	<path fill="#0050AA" d="M578.27,343.109l23.776-19.603l3.852,4.671L598.042,351l15.879-13.091l3.677,4.46l-23.775,19.604
		l-3.973-4.817l7.603-22.368l-15.506,12.783L578.27,343.109z"/>
	<path fill="#0050AA" d="M597.253,366.775l25.64-17.094l11.718,17.578l-4.337,2.892l-8.269-12.4l-6.067,4.046l7.136,10.703
		l-4.338,2.892l-7.136-10.703l-10.896,7.264L597.253,366.775z"/>
	<path fill="#0050AA" d="M611.068,388.263l26.737-15.319l3.094,5.398l-26.738,15.319L611.068,388.263z"/>
	<path fill="#0050AA" d="M628.896,423.355l-2.905-6.113l5.166-5.436l-5.289-11.125l-7.412,0.708l-2.835-5.961l32.984-2.391
		l2.825,5.942L628.896,423.355z M634.99,407.774l8.504-8.745l-12.115,1.151L634.99,407.774z"/>
	<path fill="#0050AA" d="M629.715,425.796l29.125-10.068l1.977,5.721l-15.328,18.644l19.45-6.724l1.889,5.463L637.702,448.9
		l-2.039-5.899l14.934-18.308l-18.992,6.566L629.715,425.796z"/>
	<path fill="#0050AA" d="M632.499,462.795l2.419-0.545c0.167,1.441,0.384,2.75,0.647,3.926c0.274,1.217,0.696,2.07,1.266,2.559
		c0.43,0.377,0.904,0.508,1.425,0.391c0.465-0.105,0.82-0.408,1.065-0.909c0.247-0.5,0.27-1.195,0.07-2.083
		c-0.198-0.875-0.536-1.74-1.017-2.594l2.15,0.076c0.609,0.983,1.054,2.09,1.331,3.32c0.384,1.709,0.301,3.092-0.251,4.15
		c-0.551,1.058-1.366,1.709-2.447,1.951c-1.203,0.271-2.291,0-3.265-0.815c-1.324-1.095-2.265-2.88-2.822-5.354
		C632.674,465.104,632.483,463.746,632.499,462.795z M654.689,471.197l-0.541,6.307c-3.484-0.163-6.26-1.115-8.325-2.854
		c-2.064-1.74-3.461-4.223-4.188-7.449c-0.899-3.992-0.275-7.58,1.873-10.764c2.148-3.185,5.588-5.31,10.317-6.375
		c5.003-1.127,9.181-0.711,12.531,1.25s5.5,5.045,6.448,9.256c0.828,3.677,0.415,6.91-1.241,9.696
		c-0.978,1.657-2.593,3.098-4.845,4.323l-2.788-5.685c1.479-0.707,2.542-1.726,3.189-3.057c0.649-1.331,0.79-2.803,0.429-4.416
		c-0.504-2.229-1.71-3.857-3.622-4.884c-1.911-1.027-4.66-1.137-8.24-0.33c-3.802,0.856-6.354,2.149-7.659,3.88
		c-1.306,1.73-1.711,3.689-1.219,5.876c0.363,1.613,1.189,2.885,2.477,3.816C650.571,470.717,652.373,471.188,654.689,471.197z"/>
	<path fill="#0050AA" d="M648.721,511.682l-0.745-6.728l6.66-3.445l-1.355-12.242l-7.238-1.757l-0.727-6.561l31.949,8.535
		l0.725,6.539L648.721,511.682z M659.576,498.952l10.897-5.479l-11.823-2.877L659.576,498.952z"/>
</g>
<path fill="#FFFFFF" d="M186.798,417.932c0,0-45.738,76.229-19.729,163.227c0,0,11.658,54.596,60.089,98.542l18.496-33.299
	c0,0-40.693-35.309-48.765-101.903l67.936,0.337v162.778c0,0,29.82,16.143,36.771,16.143V322.864
	C301.596,322.864,230.856,341.362,186.798,417.932z M265.161,508.177l-68.945,0.336c10.762-88.788,68.945-125.447,68.945-125.447
	V508.177z"/>
<path fill="#FFFFFF" d="M431.639,356.497c-4.934-39.911-30.043-43.947-30.043-43.947c-39.012-7.175-84.979,4.934-84.979,4.934
	v411.654c52.241,13.901,83.633,4.934,83.633,4.934c30.041-5.38,31.836-44.395,31.836-44.395S436.574,396.406,431.639,356.497z
	 M395.766,686.54c0,0-1.346,11.658-12.557,13.003c0,0-26.008,2.242-30.044-0.447l0.447-351.119c0,0,26.456-0.897,29.147,0
	c0,0,11.66,0.898,13.006,14.352V686.54z"/>
<path fill="#FFFFFF" d="M447.334,723.31l-0.445-399.548c0,0,77.129,20.628,122.418,119.729l-33.631,15.696
	c0,0-11.662-36.771-51.57-71.301l-0.896,272.195c0,0,35.875-18.387,56.053-81.615l33.186,17.044
	C572.447,595.511,550.918,681.156,447.334,723.31z"/>
<g>
	<path fill="#0050AA" d="M344.547,827.791h-5.907v-22.26c-2.158,2.018-4.701,3.51-7.63,4.477v-5.359
		c1.542-0.505,3.216-1.461,5.024-2.87c1.808-1.408,3.047-3.051,3.72-4.929h4.793V827.791z"/>
	<path fill="#0050AA" d="M353.501,820.665l5.717-0.631c0.141,1.164,0.505,2.025,1.094,2.586c0.588,0.561,1.366,0.841,2.333,0.841
		c1.219,0,2.256-0.561,3.111-1.682c0.854-1.121,1.4-3.447,1.639-6.979c-1.485,1.724-3.342,2.585-5.57,2.585
		c-2.424,0-4.516-0.935-6.274-2.806s-2.638-4.306-2.638-7.305c0-3.125,0.929-5.644,2.785-7.557s4.222-2.869,7.095-2.869
		c3.124,0,5.688,1.209,7.693,3.626c2.003,2.417,3.006,6.394,3.006,11.929c0,5.634-1.045,9.697-3.133,12.191
		c-2.088,2.495-4.807,3.742-8.155,3.742c-2.41,0-4.358-0.642-5.844-1.924S353.921,823.216,353.501,820.665z M366.87,807.759
		c0-1.905-0.438-3.384-1.313-4.435c-0.876-1.052-1.889-1.577-3.037-1.577c-1.093,0-2.001,0.431-2.723,1.293
		c-0.722,0.861-1.082,2.273-1.082,4.235c0,1.99,0.392,3.451,1.177,4.383s1.766,1.397,2.943,1.397c1.135,0,2.091-0.448,2.869-1.345
		C366.481,810.814,366.87,809.497,366.87,807.759z"/>
	<path fill="#0050AA" d="M377.107,819.614l5.718-0.693c0.182,1.457,0.673,2.571,1.472,3.342s1.766,1.156,2.9,1.156
		c1.22,0,2.246-0.463,3.079-1.388c0.834-0.925,1.251-2.172,1.251-3.741c0-1.485-0.399-2.662-1.198-3.531s-1.772-1.304-2.922-1.304
		c-0.757,0-1.66,0.147-2.711,0.441l0.651-4.813c1.598,0.042,2.816-0.305,3.657-1.04c0.841-0.736,1.262-1.713,1.262-2.933
		c0-1.037-0.309-1.863-0.925-2.48c-0.617-0.616-1.437-0.925-2.46-0.925c-1.009,0-1.87,0.351-2.585,1.051
		c-0.715,0.701-1.149,1.724-1.304,3.069l-5.444-0.925c0.379-1.863,0.949-3.353,1.714-4.467c0.764-1.114,1.828-1.99,3.194-2.628
		c1.366-0.637,2.897-0.956,4.593-0.956c2.901,0,5.228,0.925,6.979,2.774c1.442,1.514,2.165,3.224,2.165,5.129
		c0,2.705-1.479,4.863-4.436,6.475c1.766,0.378,3.178,1.227,4.235,2.543c1.058,1.317,1.587,2.908,1.587,4.771
		c0,2.705-0.987,5.01-2.964,6.916c-1.976,1.905-4.435,2.858-7.378,2.858c-2.789,0-5.101-0.802-6.937-2.406
		S377.402,822.207,377.107,819.614z"/>
	<path fill="#0050AA" d="M421.271,804.521l-5.718,0.631c-0.14-1.177-0.504-2.046-1.093-2.606s-1.353-0.841-2.291-0.841
		c-1.248,0-2.302,0.561-3.164,1.682c-0.861,1.121-1.404,3.454-1.629,7c1.472-1.737,3.301-2.606,5.486-2.606
		c2.467,0,4.579,0.938,6.338,2.816c1.758,1.878,2.638,4.302,2.638,7.272c0,3.153-0.925,5.683-2.774,7.589
		c-1.85,1.905-4.226,2.858-7.126,2.858c-3.111,0-5.668-1.209-7.672-3.626c-2.005-2.417-3.006-6.38-3.006-11.887
		c0-5.647,1.043-9.718,3.132-12.213c2.088-2.494,4.799-3.741,8.135-3.741c2.34,0,4.277,0.655,5.812,1.966
		C419.873,800.125,420.85,802.027,421.271,804.521z M407.881,817.407c0,1.92,0.441,3.402,1.324,4.445
		c0.883,1.044,1.892,1.566,3.026,1.566c1.094,0,2.004-0.428,2.733-1.282c0.729-0.854,1.093-2.256,1.093-4.204
		c0-2.004-0.393-3.472-1.178-4.403c-0.784-0.932-1.766-1.398-2.942-1.398c-1.135,0-2.095,0.445-2.88,1.335
		S407.881,815.67,407.881,817.407z"/>
</g>
<polygon fill="#D3A620" points="86.113,530.404 90.957,540.222 101.79,541.797 93.953,549.438 95.804,560.225 86.113,555.132 
	76.423,560.225 78.274,549.438 70.436,541.797 81.269,540.222 "/>
<polygon fill="#D3A620" points="92.312,587.576 97.156,597.395 107.989,598.969 100.151,606.611 102.003,617.397 92.312,612.306 
	82.622,617.397 84.473,606.611 76.635,598.969 87.467,597.395 "/>
<polygon fill="#D3A620" points="115.854,639.371 120.697,649.188 131.531,650.762 123.694,658.403 125.545,669.193 115.854,664.101 
	106.165,669.193 108.015,658.403 100.177,650.762 111.01,649.188 "/>
<polygon fill="#D3A620" points="145.451,685.78 150.293,695.6 161.128,697.175 153.29,704.816 155.142,715.605 145.451,710.512 
	135.761,715.605 137.611,704.816 129.772,697.175 140.605,695.6 "/>
<polygon fill="#D3A620" points="182.445,727.487 187.29,737.304 198.123,738.877 190.285,746.52 192.136,757.309 182.445,752.217 
	172.755,757.309 174.606,746.52 166.768,738.877 177.601,737.304 "/>
<polygon fill="#D3A620" points="230.203,761.791 235.047,771.608 245.881,773.184 238.042,780.823 239.894,791.612 230.203,786.521 
	220.513,791.612 222.363,780.823 214.525,773.184 225.359,771.608 "/>
<polygon fill="#D3A620" points="286.033,786.006 290.876,795.826 301.709,797.398 293.872,805.038 295.723,815.827 286.033,810.735 
	276.342,815.827 278.193,805.038 270.354,797.398 281.188,795.826 "/>
<polygon fill="#D3A620" points="657.699,529.508 652.857,539.327 642.021,540.9 649.861,548.54 648.01,559.328 657.699,554.237 
	667.391,559.328 665.537,548.54 673.377,540.9 662.545,539.327 "/>
<polygon fill="#D3A620" points="651.5,586.683 646.66,596.502 635.822,598.074 643.662,605.715 641.809,616.504 651.5,611.409 
	661.191,616.504 659.338,605.715 667.178,598.074 656.346,596.502 "/>
<polygon fill="#D3A620" points="627.959,638.475 623.117,648.293 612.279,649.865 620.121,657.505 618.27,668.296 627.959,663.206 
	637.648,668.296 635.797,657.505 643.637,649.865 632.803,648.293 "/>
<polygon fill="#D3A620" points="598.361,684.888 593.52,694.705 582.684,696.278 590.523,703.918 588.672,714.709 598.361,709.617 
	608.051,714.709 606.201,703.918 614.039,696.278 603.209,694.705 "/>
<polygon fill="#D3A620" points="561.367,726.587 556.525,736.41 545.689,737.982 553.527,745.623 551.678,756.412 561.367,751.32 
	571.057,756.412 569.205,745.623 577.045,737.982 566.213,736.41 "/>
<polygon fill="#D3A620" points="513.609,760.895 508.768,770.715 497.932,772.287 505.771,779.927 503.916,790.716 513.609,785.623 
	523.299,790.716 521.447,779.927 529.291,772.287 518.455,770.715 "/>
<polygon fill="#D3A620" points="457.779,785.109 452.938,794.927 442.102,796.501 449.943,804.142 448.09,814.933 457.779,809.839 
	467.471,814.933 465.619,804.142 473.459,796.501 462.627,794.927 "/>
</svg>
