<?xml version="1.0" encoding="UTF-8"?>
<!DOCTYPE svg PUBLIC "-//W3C//DTD SVG 1.1//EN" "http://www.w3.org/Graphics/SVG/1.1/DTD/svg11.dtd">
<!-- Creator: CorelDRAW 2020 (64 Bit) -->
<svg xmlns="http://www.w3.org/2000/svg" xml:space="preserve" width="210mm" height="297mm" version="1.1" style="shape-rendering:geometricPrecision; text-rendering:geometricPrecision; image-rendering:optimizeQuality; fill-rule:evenodd; clip-rule:evenodd"
viewBox="0 0 21000 29700"
 xmlns:xlink="http://www.w3.org/1999/xlink"
 xmlns:xodm="http://www.corel.com/coreldraw/odm/2003">
 <defs>
  <style type="text/css">
   <![CDATA[
    .fil0 {fill:#FEFEFE}
    .fil3 {fill:#FFF212}
    .fil1 {fill:#ED3237}
    .fil2 {fill:#3E4095}
   ]]>
  </style>
 </defs>
 <g id="Camada_x0020_1">
  <metadata id="CorelCorpID_0Corel-Layer"/>
  <path class="fil0" d="M14083.75 13339l-480.92 -229.6c-1440.81,-127.17 -1735.95,-142.52 -2852.49,-1082.19l-261.07 -95.15 -221.38 -129.75c-1116.54,939.67 -1596.89,1232.84 -3037.7,1360.01l-506.88 189.65 -128.45 -57.9c218.49,2029.29 612.85,3515.7 1906.01,5133.07 575.84,720.21 683.21,897.37 1437.06,1425.73l405.86 193.49 286.72 -47.98c753.85,-528.36 1054.49,-850.64 1630.33,-1570.85 1293.16,-1617.37 1604.42,-3059.24 1822.91,-5088.53l0 0z"/>
  <path class="fil1" d="M14365.77 13083.74c-1484.82,-131.04 -2847.65,-598.9 -3995.56,-1564.97 -1147.91,966.07 -2510.74,1433.93 -3995.56,1564.97 214.21,1989.32 747.47,3894.22 2017.85,5483.09 565.72,707.54 1237.94,1304.95 1977.71,1823.4 739.77,-518.45 1411.99,-1115.86 1977.71,-1823.4 1270.38,-1588.87 1803.64,-3493.77 2017.85,-5483.09zm-3995.56 6810.78c663.42,-460.92 1265.88,-993.28 1771.56,-1625.74 1128.17,-1411 1594.96,-3104.69 1778.56,-4873.18 -1322.71,-106.9 -2535.18,-518.55 -3550.12,-1388.7 -1014.94,870.15 -2227.41,1281.8 -3550.12,1388.7 183.6,1768.49 650.39,3462.18 1778.56,4873.18 505.68,632.46 1108.14,1164.82 1771.56,1625.74z"/>
  <path class="fil2" d="M9768.32 13631.08c83.61,-457.57 325.77,-691.3 632.34,-672.57 307.2,9.19 517.36,276.05 584.3,810.54l0.75 4.76c820.15,260.69 1414.4,1028.28 1414.4,1934.78 0,680.92 -335.3,1283.48 -849.76,1651.72l111.92 710.89c4.63,262.17 -348.3,208.99 -376.28,50.17l-87.92 -558.9c-198.17,88.64 -413.18,146.34 -638.87,167.2l0 1021.27c0,97.33 -79.64,176.97 -176.98,176.97l-24.03 0c-97.34,0 -176.98,-79.64 -176.98,-176.97l0 -1021.27c-224.38,-20.74 -438.19,-77.91 -635.42,-165.68l-91.04 582.46c-45.76,83.77 -123.61,98.89 -208.44,88.58 -95.81,-11.64 -174.35,-80.32 -167.84,-188.92l107.61 -688.7c-512.2,-368.47 -845.78,-969.66 -845.78,-1648.82 0,-903.12 589.82,-1668.38 1405.25,-1931.82l22.77 -145.69zm74.16 2034.6l338.73 0 0 -1273.03c0,-97.34 79.64,-176.98 176.98,-176.98l24.03 0c97.34,0 176.98,79.64 176.98,176.98l0 1273.03 340.51 0 -253.95 -1614.38c-89.65,-14.82 -181.68,-22.62 -275.54,-22.62 -93.81,0 -185.79,7.82 -275.41,22.6l-252.33 1614.4zm1115.26 368.96l-398.54 0 0 1343.23c207.85,-23.28 404.26,-84.38 582.08,-176.45l-183.54 -1166.78zm-776.53 0l-396.39 0 -182.62 1168.39c177.02,91.16 372.37,151.68 579.01,174.84l0 -1343.23zm867.07 -1863.37l439.48 2791.47c345.03,-307.67 562.36,-755.48 562.36,-1254.13 0,-686.5 -411.83,-1276.71 -1001.84,-1537.34zm-459.29 -480.81l-5.39 -34.3c-60.44,-391.57 -348.28,-406.18 -428.59,9.94l-3.81 24.38c71.95,-7.72 145,-11.79 219,-11.79 73.93,0 146.91,4.05 218.79,11.77zm-1340.65 3268.45l434.97 -2783.78c-585.34,262.56 -993.02,850.39 -993.02,1533.48 0,496.57 215.51,942.76 558.05,1250.3z"/>
  <polygon class="fil3" points="7194.36,11141.97 7373.3,11696.29 7955.8,11695.17 7483.88,12036.65 7664.95,12590.31 7194.36,12247.01 6723.77,12590.31 6904.84,12036.65 6432.92,11695.17 7015.43,11696.29 "/>
  <polygon class="fil3" points="8804.36,10301.97 8983.3,10856.29 9565.8,10855.17 9093.88,11196.65 9274.95,11750.31 8804.36,11407.01 8333.77,11750.31 8514.84,11196.65 8042.92,10855.17 8625.43,10856.29 "/>
  <polygon class="fil3" points="13554.36,11141.97 13733.3,11696.29 14315.8,11695.17 13843.88,12036.65 14024.95,12590.31 13554.36,12247.01 13083.77,12590.31 13264.84,12036.65 12792.92,11695.17 13375.43,11696.29 "/>
  <polygon class="fil3" points="11944.36,10301.97 12123.3,10856.29 12705.8,10855.17 12233.88,11196.65 12414.95,11750.31 11944.36,11407.01 11473.77,11750.31 11654.84,11196.65 11182.92,10855.17 11765.43,10856.29 "/>
  <polygon class="fil3" points="10364.36,9681.97 10543.3,10236.29 11125.8,10235.17 10653.88,10576.65 10834.95,11130.31 10364.36,10787.01 9893.77,11130.31 10074.84,10576.65 9602.92,10235.17 10185.43,10236.29 "/>
  <polygon class="fil1" points="10364.36,8171.97 10543.3,8726.29 11125.8,8725.17 10653.88,9066.65 10834.95,9620.31 10364.36,9277.01 9893.77,9620.31 10074.84,9066.65 9602.92,8725.17 10185.43,8726.29 "/>
 </g>
</svg>
