<?xml version="1.0" encoding="utf-8"?>
<!-- Generator: Adobe Illustrator 12.0.0, SVG Export Plug-In  -->
<!DOCTYPE svg PUBLIC "-//W3C//DTD SVG 1.1//EN" "http://www.w3.org/Graphics/SVG/1.1/DTD/svg11.dtd" [
	<!ENTITY ns_flows "http://ns.adobe.com/Flows/1.0/">
	<!ENTITY ns_svg "http://www.w3.org/2000/svg">
	<!ENTITY ns_xlink "http://www.w3.org/1999/xlink">
]>
<svg  version="1.1" xmlns="&ns_svg;" xmlns:xlink="&ns_xlink;" xmlns:a="http://ns.adobe.com/AdobeSVGViewerExtensions/3.0/"
	 width="193" height="193" viewBox="0 0 193 193" enable-background="new 0 0 193 193" xml:space="preserve">
<defs>
</defs>
<polygon opacity="0" fill-rule="evenodd" clip-rule="evenodd" fill="#FFFFFF" points="0,0 192.7558594,0 192.7558594,192.7558594 
	0,192.7558594 0,0 "/>
<path fill-rule="evenodd" clip-rule="evenodd" fill="#FF0000" d="M67.7558594,87.7519531
	c0,2.4853516-0.2910156,4.6416016-0.8730469,6.4658203c-0.5820313,1.8276367-1.9672852,2.7421875-4.1518555,2.7421875
	c-2.3901367,0-3.9467773-0.7583008-4.6704102-2.2666016c-0.7231445-1.512207-1.0844727-4.25-1.0844727-8.2050781v-5.3496094
	c0-3.453125,0.4384766-5.9008789,1.3085938-7.3242188c0.8701172-1.4277344,2.2304688-2.144043,4.0693359-2.144043
	c1.9643555,0,3.3583984,0.6699219,4.1733398,2.0087891c0.8183594,1.3398438,1.2285156,3.3110352,1.2285156,5.9057617h-3.3491211
	c0-1.4912109-0.1376953-2.590332-0.4135742-3.2895508c-0.2753906-0.7036133-0.6987305-1.0576172-1.262207-1.0576172
	c-0.784668,0-1.3603516,0.3540039-1.722168,1.0532227c-0.3618164,0.7036133-0.5913086,1.8027344-0.6831055,3.2939453v8.4282227
	c0,1.878418,0.1806641,3.2470703,0.5419922,4.0981445c0.3618164,0.8510742,0.9194336,1.2807617,1.6733398,1.2807617
	c0.7075195,0,1.1982422-0.4589844,1.4643555-1.3774414c0.2666016-0.918457,0.4013672-2.3417969,0.4013672-4.2626953H67.7558594
	L67.7558594,87.7519531z"/>
<path fill-rule="evenodd" clip-rule="evenodd" fill="#FF0000" d="M138.1679688,89.190918
	c0.0439453,0.28125,0.078125,0.625,0.09375,1.0195313c0.015625,0.3979492,0.0244141,0.6123047,0.0244141,0.6289063
	c0,1.9794922-0.5634766,3.5693359-1.6875,4.7602539c-1.1240234,1.1914063-2.4453125,1.7910156-3.9550781,1.7910156
	c-1.5253906,0-2.8369141-0.6416016-3.9267578-1.9165039c-1.0898438-1.2792969-1.6376953-3.1499023-1.6376953-5.5996094
	c0-0.4526367,0.0244141-0.9394531,0.0712891-1.4550781h3.4228516c-0.015625,0.515625-0.0244141,1.0024414-0.0244141,1.4511719
	c0,1.3125,0.2089844,2.2900391,0.6289063,2.9189453c0.4199219,0.6333008,0.9433594,0.9521484,1.5625,0.9521484
	c0.5546875,0,1.0458984-0.2392578,1.4658203-0.7084961c0.4199219-0.4697266,0.6328125-1.078125,0.6328125-1.8081055
	c0-0.5786133-0.1376953-1.1572266-0.4101563-1.7236328c-0.2724609-0.5703125-0.8017578-1.2246094-1.5791016-1.9545898
	c-0.7792969-0.7299805-1.6494141-1.5556641-2.6015625-2.4702148c-0.9550781-0.9140625-1.7128906-1.9042969-2.2646484-2.9697266
	c-0.5537109-1.0649414-0.8330078-2.3525391-0.8330078-3.8540039c0-1.9375,0.4921875-3.4599609,1.46875-4.5673828
	c0.9775391-1.1069336,2.1542969-1.6645508,3.5205078-1.6645508c1.5253906,0,2.8496094,0.7128906,3.9648438,2.1298828
	c1.1142578,1.4179688,1.6748047,3.46875,1.6748047,6.1362305h-3.2285156c0-1.4633789-0.2099609-2.5541992-0.6269531-3.2626953
	c-0.4189453-0.7089844-0.9199219-1.0654297-1.4960938-1.0654297c-0.4980469,0-0.9365234,0.230957-1.3125,0.6918945
	c-0.3759766,0.4614258-0.5664063,1.0107422-0.5664063,1.6357422c0,0.4277344,0.0869141,0.8515625,0.2626953,1.2583008
	s0.4228516,0.7758789,0.7363281,1.0947266c0.3125,0.3227539,1.1210938,1.0185547,2.4208984,2.0839844
	c1.3027344,1.0654297,2.2822266,2.0634766,2.9404297,2.9863281c0.6572266,0.9228516,1.0800781,2.0883789,1.2548828,3.4853516
	L138.1679688,89.190918L138.1679688,89.190918z"/>
<path fill-rule="evenodd" clip-rule="evenodd" fill="#FF0000" d="M102.390625,153.3261719
	c0.0439453,0.28125,0.078125,0.625,0.09375,1.0195313c0.015625,0.3984375,0.0253906,0.6132813,0.0253906,0.6289063
	c0,1.9804688-0.5634766,3.5703125-1.6875,4.7597656c-1.125,1.1914063-2.4462891,1.7910156-3.9555664,1.7910156
	c-1.5249023,0-2.8374023-0.640625-3.9272461-1.9160156c-1.0898438-1.2792969-1.6376953-3.1503906-1.6376953-5.5996094
	c0-0.453125,0.0249023-0.9394531,0.0717773-1.4550781h3.4228516c-0.0151367,0.515625-0.0249023,1.0019531-0.0249023,1.4511719
	c0,1.3125,0.2099609,2.2910156,0.6298828,2.9199219c0.4194336,0.6328125,0.9423828,0.9511719,1.5625,0.9511719
	c0.5541992,0,1.0458984-0.2382813,1.4658203-0.7089844c0.4189453-0.46875,0.6318359-1.078125,0.6318359-1.8066406
	c0-0.5800781-0.1367188-1.1582031-0.4101563-1.7246094c-0.2724609-0.5703125-0.8017578-1.2246094-1.578125-1.9550781
	c-0.7797852-0.7285156-1.6503906-1.5546875-2.6020508-2.46875c-0.9555664-0.9160156-1.7133789-1.9042969-2.2641602-2.9707031
	c-0.5546875-1.0644531-0.8334961-2.3515625-0.8334961-3.8535156c0-1.9375,0.4921875-3.4609375,1.46875-4.5683594
	c0.9775391-1.1054688,2.1547852-1.6640625,3.5200195-1.6640625c1.5253906,0,2.8496094,0.7128906,3.9648438,2.1308594
	s1.6757813,3.46875,1.6757813,6.1347656h-3.2294922c0-1.4628906-0.2089844-2.5527344-0.6259766-3.2617188
	c-0.4194336-0.7089844-0.9208984-1.0664063-1.496582-1.0664063c-0.4980469,0-0.9365234,0.2304688-1.3125,0.6933594
	c-0.3754883,0.4609375-0.5668945,1.0097656-0.5668945,1.6347656c0,0.4277344,0.0878906,0.8515625,0.2631836,1.2578125
	c0.175293,0.4082031,0.4228516,0.7773438,0.7358398,1.0957031c0.3134766,0.3222656,1.1210938,1.0195313,2.4208984,2.0839844
	c1.3027344,1.0644531,2.2832031,2.0625,2.9404297,2.9863281c0.6582031,0.921875,1.0810547,2.0878906,1.2558594,3.484375
	L102.390625,153.3261719L102.390625,153.3261719z"/>
<path fill-rule="evenodd" clip-rule="evenodd" fill="#FF0000" d="M49.0600586,36.2597656L59.5727539,27.625l14.5253906,19.3793945
	l0.3823242,6.5234375l11.8496094,15.1577148l-3.6313477,4.2211914L70.0839844,56.7895508l-6.3066406-2.3022461
	C63.7773438,54.4873047,48.4868164,35.6845703,49.0600586,36.2597656L49.0600586,36.2597656z"/>
<path fill-rule="evenodd" clip-rule="evenodd" fill="#FF0000" d="M144.8154297,36.2597656L134.3027344,27.625
	l-14.5253906,19.3793945l-0.3818359,6.5234375l-11.8496094,15.1577148l3.6308594,4.2211914l12.6152344-16.1171875
	l6.3066406-2.3022461C130.0986328,54.4873047,145.3886719,35.6845703,144.8154297,36.2597656L144.8154297,36.2597656z"/>
<path fill-rule="evenodd" clip-rule="evenodd" fill="#FF0000" d="M96.7724609,36.4516602
	c3.7519531,0,6.8115234,3.0595703,6.8115234,6.8110352s-3.0595703,6.8115234-6.8115234,6.8115234
	c-3.7514648,0-6.8110352-3.0600586-6.8110352-6.8115234S93.0209961,36.4516602,96.7724609,36.4516602L96.7724609,36.4516602z"/>
<path fill-rule="evenodd" clip-rule="evenodd" fill="#FFFFFF" d="M96.7231445,40.1831055
	c1.7426758,0,3.1655273,1.4223633,3.1655273,3.1660156s-1.4228516,3.1660156-3.1655273,3.1660156
	c-1.7441406,0-3.1660156-1.4223633-3.1660156-3.1660156S94.9790039,40.1831055,96.7231445,40.1831055L96.7231445,40.1831055z"/>
<path fill-rule="evenodd" clip-rule="evenodd" fill="#FF0000" d="M94.3129883,49.0917969v3.6665039h-7.9760742l0.0161133,6.453125
	h7.9599609v6.8544922l4.8227539,0.8930664l0.0146484-7.7475586h8.3945313l-0.0068359-6.453125h-8.3876953v-3.7255859
	C99.1503906,49.0327148,94.3129883,49.2836914,94.3129883,49.0917969L94.3129883,49.0917969z"/>
<polygon fill-rule="evenodd" clip-rule="evenodd" fill="#FF0000" points="82.6523438,101.3203125 87.0483398,104.5839844 
	78.5288086,115.7832031 73.7763672,113.2324219 82.6523438,101.3203125 "/>
<polygon fill-rule="evenodd" clip-rule="evenodd" fill="#FF0000" points="69.296875,119.1347656 73.9619141,121.7871094 
	66.7749023,131.234375 62.4467773,127.7363281 69.296875,119.1347656 "/>
<polygon fill-rule="evenodd" clip-rule="evenodd" fill="#FF0000" points="106.7353516,104.5761719 110.7587891,100.9804688 
	119.4462891,113.0195313 115.1953125,115.8066406 106.7353516,104.5761719 "/>
<path fill-rule="evenodd" clip-rule="evenodd" fill="#FF0000" d="M119.9892578,121.7265625l4.6494141-2.6445313l7.1464844,8.8222656
	l-4.4179688,3.3828125C127.3671875,131.2871094,119.8994141,121.609375,119.9892578,121.7265625L119.9892578,121.7265625z"/>
<path fill="#FF0000" d="M96.7124023,184.2519531l2.0991211-5.8007813
	c4.6796875-9.3183594,11.2949219-18.921875,20.6357422-28.5078125c9.4853516-9.7324219,21.7861328-19.4550781,37.7314453-28.8554688
	l1.6181641-0.9550781l-0.8691406-1.65625l-0.0029297-0.0078125l-0.0078125-0.0058594
	c-2.1162109-4.0097656-3.9785156-8.0410156-5.5712891-12.0898438c-1.5859375-4.0292969-2.9072266-8.0878906-3.9501953-12.1713867
	c-5.3339844-20.8813477-3.2587891-42.2050781,8-63.6923828l0.765625-1.4614258l-1.3144531-1.0112305L131.8251953,9.565918
	l-1.3505859-1.0395508l-1.2216797,1.1787109c-11.9882813,11.5600586-23.4785156,16.3525391-34.5800781,15.862793
	C83.5366211,25.0766602,72.6420898,19.2729492,61.921875,9.6508789l-1.277832-1.1469727l-1.3183594,1.1079102L37.3491211,28.0830078
	l-1.1464844,0.9638672l0.628418,1.3696289c7.4853516,16.3076172,10.6010742,31.6069336,10.0371094,46.0581055
	c-0.5620117,14.4194336-4.7958984,28.0097656-12.012207,40.9277344l-0.8969727,1.6054688l1.5307617,1.0058594
	c15.8740234,10.4257813,29.3579102,20.6757813,39.5869141,30.5546875
	c10.1074219,9.7597656,17.034668,19.1367188,19.9335938,27.9277344L96.7124023,184.2519531L96.7124023,184.2519531z
	 M60.5678711,13.7397461c10.9780273,9.5366211,22.2529297,15.2695313,33.9350586,15.7841797
	c11.7841797,0.5200195,23.8427734-4.2675781,36.2509766-15.8071289l21.3779297,16.4389648
	c-11.0742188,21.9111328-13.0205078,43.6762695-7.5693359,65.019043c1.078125,4.2197266,2.4511719,8.4326172,4.1044922,12.6357422
	c1.4267578,3.625,3.0625,7.2363281,4.8964844,10.8320313c-15.4794922,9.2871094-27.5429688,18.9042969-36.9433594,28.5507813
	c-8.4746094,8.6953125-14.78125,17.4101563-19.4707031,25.9296875c-3.675293-8.1699219-10.3032227-16.6757813-19.3378906-25.3984375
	c-10.1176758-9.7714844-23.253418-19.8339844-38.6264648-30.0175781
	c6.9829102-12.9824219,11.0756836-26.6318359,11.6396484-41.0932617c0.5703125-14.621582-2.4726563-30.0585938-9.7861328-46.4594727
	L60.5678711,13.7397461L60.5678711,13.7397461z"/>
<path fill-rule="evenodd" clip-rule="evenodd" fill="#FF0000" d="M96.7446289,134.6054688
	c1.4223633-7.7890625,22.4243164-11.0742188,34.4536133-22.421875l2.4912109,2.3535156l2.3447266-13.5332031l-10.1103516,6.03125
	l2.1972656,1.6171875c-10.4111328,9.6152344-24.9580078,16.6796875-29.0126953-1.4707031
	c0.1464844,0-2.1982422-0.1464844-2.3637695-0.2304688c-0.1655273-0.0820313-2.5097656,0.0644531-2.362793,0.0644531
	c-4.0551758,18.1503906-18.6015625,11.0839844-29.0136719,1.4707031l2.1977539-1.6171875l-10.1103516-6.03125l2.3442383,13.5332031
	l2.4912109-2.3535156C74.3212891,123.3652344,95.3227539,126.6484375,96.7446289,134.6054688L96.7446289,134.6054688z"/>
<path fill="#FF0000" d="M96.9648438,65.550293h0.0009766c5.7832031,0.0004883,11.0332031,2.3583984,14.8369141,6.1625977
	c3.8037109,3.8032227,6.1611328,9.0527344,6.1621094,14.8359375v0.0009766v0.0004883
	c0,5.7832031-2.3583984,11.0336914-6.1630859,14.8364258c-3.8027344,3.8046875-9.0527344,6.1621094-14.8354492,6.1621094h-0.0014648
	l0,0c-5.7836914,0-11.0336914-2.3574219-14.8369141-6.1621094c-3.8037109-3.8027344-6.1616211-9.0527344-6.1621094-14.8359375
	v-0.0009766v-0.0004883c0-5.7832031,2.3583984-11.0332031,6.1621094-14.8369141s9.0532227-6.1616211,14.8364258-6.1621094
	H96.9648438L96.9648438,65.550293z M92.6137695,68.0537109l-0.0029297,0.0019531l-0.0073242,0.0078125
	c-0.6826172,0.6489258-1.3291016,1.3413086-1.9365234,2.0712891c-0.6035156,0.7260742-1.1435547,1.4580078-1.6171875,2.190918
	c-2.2128906,3.4257813-3.2851563,7.1918945-3.0683594,10.7763672l5.1196289-0.5507813
	c0.7255859-1.5986328,1.6645508-2.9873047,2.8154297-4.1660156c1.1445313-1.1713867,2.4936523-2.1323242,4.0473633-2.8818359
	c0.0888672-1.5874023,0.4541016-3.0654297,1.0957031-4.434082c0.5185547-1.105957,1.2148438-2.1313477,2.0878906-3.0751953
	c-1.3466797-0.3041992-2.7460938-0.465332-4.1816406-0.465332h-0.0009766h-0.0004883
	c-1.5019531,0.0004883-2.9638672,0.1762695-4.3666992,0.5078125L92.6137695,68.0537109L92.6137695,68.0537109z
	 M103.3144531,68.6220703c-1.0849609,0.9897461-1.9082031,2.0839844-2.4697266,3.2822266
	c-0.5341797,1.1391602-0.8369141,2.3881836-0.9072266,3.7456055c1.2626953,0.9238281,2.4199219,1.8955078,3.4755859,2.9023438
	c1.1835938,1.1298828,2.2353516,2.2978516,3.1601563,3.4882813c4.0048828,5.1533203,5.7666016,10.8525391,5.6630859,15.8266602
	c2.3535156-3.1669922,3.75-7.0844727,3.75-11.3168945v-0.0004883v-0.0009766c0-5.2373047-2.1367188-9.9916992-5.5820313-13.4375
	C108.421875,71.1289063,106.0058594,69.5800781,103.3144531,68.6220703L103.3144531,68.6220703z M110.0214844,100.359375
	c0.8935547-5.0454102-0.5800781-11.4057617-5.0087891-17.1054688c-0.8769531-1.128418-1.8623047-2.2246094-2.9599609-3.2719727
	c-0.9824219-0.9370117-2.0576172-1.8417969-3.2294922-2.7026367c-1.3466797,0.6499023-2.5107422,1.4770508-3.4921875,2.4814453
	c-0.9609375,0.9833984-1.7519531,2.1401367-2.3730469,3.4711914c0.2983398,0.2924805,0.578125,0.5854492,0.8398438,0.8779297
	c0.4106445,0.4599609,0.8046875,0.9501953,1.1811523,1.4707031c1.8828125,2.6005859,3.0170898,5.6240234,3.4018555,9.0703125
	l0.0380859,0.3486328c1.2050781,1.4975586,1.9863281,3.105957,2.4208984,4.8344727
	c0.4169922,1.6523438,0.5117188,3.4023438,0.3583984,5.2597656
	C104.5634766,104.3242188,107.5927734,102.65625,110.0214844,100.359375L110.0214844,100.359375z M99.1845703,105.4414063
	c0.1972656-1.8378906,0.1386719-3.5449219-0.2607422-5.1289063c-0.4023438-1.5976563-1.1601563-3.0810547-2.3603516-4.4550781
	l-14.9956055,1.8359375c0.5922852,0.8164063,1.2475586,1.5839844,1.9584961,2.2949219
	c3.4458008,3.4453125,8.2011719,5.5820313,13.4384766,5.5820313l0,0h0.0014648
	C97.7163086,105.5703125,98.4560547,105.5273438,99.1845703,105.4414063L99.1845703,105.4414063z M80.3823242,95.8476563
	l15.9033203-1.9482422c-0.4355469-2.6982422-1.4038086-5.0849609-2.90625-7.159668
	c-0.315918-0.4365234-0.668457-0.8725586-1.0576172-1.3081055c-0.2919922-0.3271484-0.5898438-0.637207-0.8920898-0.9301758
	l-13.4755859,1.4487305c-0.0058594,0.1992188-0.0097656,0.3989258-0.0097656,0.5991211v0.0004883v0.0009766
	C77.9443359,89.9233398,78.8310547,93.0957031,80.3823242,95.8476563L80.3823242,95.8476563z M78.1225586,83.9472656
	l5.8920898-0.6337891c-0.265625-4.0317383,0.9140625-8.246582,3.3740234-12.0541992
	c0.4067383-0.6298828,0.8413086-1.2407227,1.3022461-1.8295898c-1.9228516,0.9350586-3.6674805,2.1845703-5.1640625,3.6816406
	C80.6611328,75.9765625,78.7016602,79.746582,78.1225586,83.9472656L78.1225586,83.9472656z M91.1088867,84.1977539
	L91.1088867,84.1977539L91.1088867,84.1977539L91.1088867,84.1977539L91.1088867,84.1977539z M98.3662109,76.9492188
	c-0.0068359-0.0053711-0.0048828-0.003418,0.0029297,0.0019531C98.3681641,76.9506836,98.3671875,76.949707,98.3662109,76.9492188
	L98.3662109,76.9492188z M98.3710938,76.9521484c0,0.0004883,0.0009766,0.0014648,0.0019531,0.0019531
	C98.3720703,76.9536133,98.3720703,76.9526367,98.3710938,76.9521484L98.3710938,76.9521484z"/>
</svg>
